<svg version="1" xmlns="http://www.w3.org/2000/svg" width="346.667" height="346.667" viewBox="0 0 260.000000 260.000000"><path d="M30 39c-2.8.4-3.9 1.3-5.5 4.2-1.5 2.9-2.6 3.8-4.6 3.8-3.2 0-5.9 2.8-5.9 6.2 0 2-.6 2.7-2.7 3.3-5.4 1.3-5.2-1.3-5.3 73 0 74.7-.1 72.9 5.3 73.7 1.7.2 2.3 1.1 2.5 3.5.4 3.7 3.3 6.3 7.2 6.3 1.9 0 2.6.6 2.7 2.1.1 1.2 1 3 1.9 4 1.7 1.8 5 1.9 104.4 1.9 98.2 0 102.8-.1 104.3-1.8 1-1 1.7-2.6 1.7-3.6 0-1.7 1-2.4 4.7-2.9 3.3-.5 5.3-2.7 5.3-5.8 0-2 .6-3 2.2-3.5 1.3-.3 3.1-1.3 4-2.2 1.7-1.4 1.8-6 1.8-70.3 0-40.5-.4-69.8-.9-71.2-.6-1.6-2.1-2.8-4-3.2-2.3-.5-3.1-1.2-3.1-2.9 0-3.5-2.7-6.4-6.3-6.8-2.4-.2-3.3-.8-3.5-2.4-.2-1.2-1.1-2.9-2.1-3.9-1.7-1.5-10.2-1.6-101.2-1.8-54.7-.1-101 0-102.9.3z"/></svg>